#!OML:ASF E:\emotionWalksFemale\Project 1\Capture day 1\Session 1\Female1.ASF
:FULLY-SPECIFIED
:DEGREES
86
root 7.86184 15.15 41.8383 176.761 -1.90472 -179.972
lowerback 7.66245 1.08444 1.08766
upperback -4.50801 1.45876 -0.521844
thorax -9.04338 0.589466 -1.38343
lowerneck -8.40441 -2.6777 -6.24956
upperneck 21.2933 -4.6146 3.99246
head 8.20004 -2.73222 1.87499
rclavicle -7.57867e-015 8.24956e-015
rhumerus -49.4367 23.1515 -104.718
rradius 34.1134
rwrist 8.74364
rhand -3.37947 -55.7308
rfingers 7.12502
rthumb 22.3497 -84.458
lclavicle -7.57867e-015 8.24956e-015
lhumerus -45.9818 1.29747 84.1827
lradius 39.0159
lwrist -17.3897
lhand -5.17564 -25.7892
lfingers 7.12502
lthumb 20.6246 3.13508
rfemur -3.00995 17.9874 28.2623
rtibia 26.5892
rfoot -23.6644 -34.7744
rtoes -7.00249
lfemur -7.77868 -21.2595 -25.2882
ltibia 30.4912
lfoot -22.1897 17.7826
ltoes -34.1965
87
root 7.8606 15.1501 41.8392 176.695 -1.94089 -179.921
lowerback 7.75434 1.08597 1.213
upperback -4.48201 1.47576 -0.558432
thorax -9.06478 0.589586 -1.49731
lowerneck -8.59181 -2.72784 -6.17209
upperneck 21.39 -4.68485 3.98007
head 8.26875 -2.75737 1.84775
rclavicle 1.0461e-014 -1.78906e-015
rhumerus -49.3704 22.9718 -104.653
rradius 34.1005
rwrist 8.87963
rhand -3.39345 -55.5905
rfingers 7.12502
rthumb 22.3363 -84.3193
lclavicle 1.0461e-014 -1.78906e-015
lhumerus -45.9131 1.23627 84.0979
lradius 39.0869
lwrist -17.1195
lhand -4.3015 -25.7961
lfingers 7.12502
lthumb 21.4644 3.03474
rfemur -2.918 18.1047 28.3465
rtibia 26.558
rfoot -23.8474 -34.7813
rtoes -5.98575
lfemur -7.72118 -21.2756 -25.264
ltibia 30.5094
lfoot -22.107 18.072
ltoes -34.9302
88
root 7.86033 15.1498 41.8405 176.612 -1.98968 -179.856
lowerback 7.8341 1.07528 1.3045
upperback -4.4535 1.47611 -0.552125
thorax -9.07871 0.585388 -1.54378
lowerneck -8.53209 -2.73488 -6.30153
upperneck 21.3122 -4.70481 4.14435
head 8.23955 -2.76019 1.92364
rclavicle -1.01877e-015 1.04362e-014
rhumerus -49.3394 22.8926 -104.58
rradius 34.1134
rwrist 9.09134
rhand -3.25562 -55.5693
rfingers 7.12502
rthumb 22.4686 -84.2822
lclavicle -1.01877e-015 1.04362e-014
lhumerus -45.8842 1.20232 84.0935
lradius 39.134
lwrist -16.8876
lhand -4.55923 -25.8564
lfingers 7.12502
lthumb 21.2169 3.00247
rfemur -2.82098 18.0149 28.4322
rtibia 26.5389
rfoot -23.9401 -34.7727
rtoes -6.07885
lfemur -7.64871 -21.3772 -25.2241
ltibia 30.5245
lfoot -22.159 18.301
ltoes -34.7237
89
root 7.86137 15.1505 41.8416 176.668 -2.07887 -179.863
lowerback 7.75812 1.05887 1.30022
upperback -4.45958 1.45123 -0.555309
thorax -9.04141 0.573463 -1.53906
lowerneck -8.40027 -2.72835 -6.45698
upperneck 21.2035 -4.7031 4.29453
head 8.18591 -2.75758 2.00242
rclavicle -7.45443e-017 -3.67752e-015
rhumerus -49.3295 22.9521 -104.553
rradius 34.1181
rwrist 9.20589
rhand -3.08879 -55.6771
rfingers 7.12502
rthumb 22.6287 -84.3706
lclavicle -7.45443e-017 -3.67752e-015
lhumerus -45.7926 1.28216 84.0643
lradius 39.0549
lwrist -16.9499
lhand -5.62026 -25.6817
lfingers 7.12502
lthumb 20.1974 3.28825
rfemur -2.89917 17.8979 28.3973
rtibia 26.5482
rfoot -23.9579 -34.8114
rtoes -6.45911
lfemur -7.73823 -21.337 -25.1914
ltibia 30.5161
lfoot -22.0743 17.9911
ltoes -34.323
90
root 7.86234 15.1514 41.8428 176.763 -2.12282 -179.954
lowerback 7.65778 1.05862 1.19478
upperback -4.46572 1.43397 -0.576588
thorax -8.9914 0.570719 -1.49728
lowerneck -8.44876 -2.75266 -6.41994
upperneck 21.1931 -4.7217 4.23746
head 8.19037 -2.76572 1.97473
rclavicle -1.2921e-015 3.97569e-015
rhumerus -49.3266 23.0819 -104.578
rradius 34.1098
rwrist 9.1886
rhand -3.03293 -55.8071
rfingers 7.12502
rthumb 22.6824 -84.4941
lclavicle -1.2921e-015 3.97569e-015
lhumerus -45.6897 1.35626 84.0362
lradius 38.9885
lwrist -17.075
lhand -6.09154 -25.4316
lfingers 7.12502
lthumb 19.7444 3.58566
rfemur -3.00688 17.9519 28.2799
rtibia 26.5455
rfoot -23.9923 -34.8325
rtoes -6.02599
lfemur -7.86221 -21.2828 -25.2394
ltibia 30.5131
lfoot -22.0695 17.6451
ltoes -33.9445
91
root 7.86095 15.1512 41.8389 176.785 -2.03038 -180.033
lowerback 7.53098 1.10784 1.10584
upperback -4.41535 1.48858 -0.586724
thorax -8.86184 0.604715 -1.4623
lowerneck -8.47636 -2.76742 -6.39727
upperneck 21.1579 -4.72437 4.18684
head 8.18228 -2.76624 1.95366
rclavicle -1.51325e-014 -6.85807e-015
rhumerus -49.2775 23.1839 -104.572
rradius 34.0908
rwrist 9.11574
rhand -2.95826 -55.88
rfingers 7.12502
rthumb 22.754 -84.5582
lclavicle -1.51325e-014 -6.85807e-015
lhumerus -45.5618 1.39016 84.0492
lradius 38.8958
lwrist -17.3098
lhand -6.26027 -25.5987
lfingers 7.12502
lthumb 19.5821 3.43508
rfemur -3.02885 18.0076 28.1793
rtibia 26.5546
rfoot -23.8044 -34.8086
rtoes -6.52082
lfemur -7.84868 -21.355 -25.3516
ltibia 30.5041
lfoot -22.0796 17.9111
ltoes -34.3269
